<svg version="1.0" xmlns="http://www.w3.org/2000/svg"
viewBox="0 0 200.000000 200.000000"
 preserveAspectRatio="xMidYMid meet">
<metadata>
Created by potrace 1.10, written by Peter Selinger 2001-2011
</metadata>
<g transform="translate(0.000000,200.000000) scale(0.100000,-0.100000)"
fill="#000000" stroke="none">
<path d="M1466 1961 c-3 -5 -26 -12 -51 -15 -26 -4 -58 -18 -75 -33 -26 -21
-38 -24 -83 -21 -28 2 -61 8 -72 13 -16 6 -18 6 -7 -6 18 -19 15 -26 -15 -34
-16 -3 -45 -18 -66 -31 -22 -14 -55 -28 -74 -31 -23 -4 -30 -9 -22 -14 10 -6
6 -13 -13 -29 -18 -14 -25 -26 -21 -38 6 -15 4 -15 -9 -4 -14 11 -17 10 -20
-5 -2 -13 -11 -5 -31 30 -16 26 -32 45 -36 42 -5 -2 -15 3 -22 12 -8 9 -47 38
-88 65 l-74 49 6 -31 c6 -28 5 -30 -13 -20 -26 14 -50 13 -45 -2 3 -7 -10 -20
-27 -28 -17 -8 -39 -26 -47 -40 -18 -27 -11 -25 44 15 38 28 87 37 122 24 l28
-10 -24 25 c-32 34 -18 33 39 -4 49 -31 150 -133 150 -150 0 -6 9 -10 20 -10
23 0 31 -25 27 -90 -2 -30 -7 -44 -16 -42 -7 1 -10 -2 -6 -8 3 -5 1 -10 -5
-10 -7 0 -9 7 -6 17 4 10 -3 26 -18 42 -13 14 -26 37 -29 51 l-4 25 -2 -26 c0
-15 8 -38 19 -52 31 -40 24 -87 -8 -55 -7 7 -12 8 -12 4 0 -5 8 -14 17 -21 15
-11 13 -14 -17 -30 -28 -14 -32 -15 -27 -2 3 9 -1 18 -9 21 -22 8 -17 28 6 21
24 -7 26 7 5 25 -8 7 -15 16 -15 21 0 5 -11 32 -25 60 -17 37 -20 49 -9 45 20
-8 -16 62 -47 89 -12 11 -19 14 -14 6 6 -11 4 -13 -11 -7 -10 4 -32 9 -49 12
l-30 4 32 -15 c40 -19 55 -39 18 -25 -34 13 -44 13 -25 -1 12 -8 8 -9 -15 -6
-16 2 -39 8 -50 12 -18 8 -18 7 -6 -8 7 -9 11 -23 8 -32 -4 -8 -1 -17 5 -21 7
-5 8 -2 3 6 -5 8 -3 11 6 8 8 -3 19 1 24 7 6 7 29 15 52 18 45 5 74 -14 80
-53 4 -26 -3 -25 -39 5 -34 29 -57 34 -37 8 13 -16 11 -16 -15 1 -22 14 -30
15 -36 5 -5 -6 -6 -19 -2 -27 3 -10 1 -13 -6 -9 -10 7 -9 0 12 -78 3 -11 4 -1
2 22 -4 42 -4 42 19 27 21 -14 55 -56 55 -68 0 -3 -8 -3 -17 0 -17 5 -17 5 -1
-5 9 -6 15 -20 13 -30 -2 -11 7 -29 22 -42 l26 -24 -12 23 c-6 12 -17 22 -24
22 -7 0 -6 4 3 10 8 5 10 10 3 10 -6 0 -9 8 -6 19 5 21 -17 70 -41 90 -23 19
-20 31 8 31 48 0 107 -68 112 -130 5 -52 9 -65 23 -71 10 -4 5 -11 -19 -22
-30 -16 -35 -16 -51 -1 -10 9 -26 14 -36 11 -14 -3 -12 -6 10 -12 17 -4 26
-13 23 -20 -3 -8 2 -11 15 -8 10 3 19 3 19 -1 0 -16 -74 -106 -87 -106 -8 0
-11 5 -8 11 4 6 -1 5 -12 -2 -17 -10 -23 -9 -39 5 -10 9 -30 26 -44 37 -21 17
-22 19 -3 10 30 -15 38 -14 23 4 -7 8 -10 15 -6 15 3 0 -8 13 -26 30 -18 16
-27 30 -20 30 10 0 6 14 -13 46 -15 25 -28 60 -30 77 -9 73 -18 118 -26 123
-8 5 -14 -33 -10 -66 0 -8 3 -34 5 -58 2 -27 12 -53 27 -70 13 -14 16 -20 7
-13 -16 12 -18 11 -18 -4 0 -10 19 -36 42 -58 30 -28 35 -37 20 -33 -12 4 -22
3 -22 -2 0 -17 40 -61 63 -68 22 -8 22 -8 -3 -14 -22 -6 -20 -8 18 -14 42 -8
56 -28 28 -39 -8 -3 -21 -25 -28 -48 -7 -24 -27 -57 -44 -74 -22 -22 -29 -37
-23 -46 6 -11 11 -11 21 -1 18 18 24 15 22 -15 -2 -49 -3 -52 -34 -68 -43 -22
-45 -19 -5 16 19 17 35 36 35 42 0 6 -12 -1 -27 -15 -37 -34 -71 -51 -90 -44
-13 5 -14 4 -3 -9 7 -8 21 -15 31 -15 25 0 24 -12 -1 -35 -11 -10 -25 -37 -31
-59 -6 -23 -18 -63 -26 -89 -11 -36 -12 -52 -4 -60 8 -8 11 -4 11 14 0 14 11
36 25 49 l25 24 -11 -32 c-12 -36 -5 -100 16 -147 l13 -30 2 35 c1 33 2 31 16
-20 9 -30 13 -73 10 -95 l-5 -40 20 24 c24 29 24 47 -1 96 -27 52 -25 95 5
139 27 40 31 51 15 41 -14 -9 -12 5 5 35 8 14 14 30 14 35 0 15 -32 -47 -34
-65 -1 -21 -50 -101 -58 -94 -11 12 4 117 21 140 17 24 39 34 26 12 -4 -7 13
10 39 37 41 44 46 47 48 28 2 -27 3 -31 13 -62 5 -15 11 -20 18 -13 6 6 7 16
2 24 -5 7 -10 32 -11 56 -3 32 0 42 12 42 10 0 15 10 15 27 0 39 10 22 18 -31
l7 -47 11 35 c8 25 8 34 0 30 -13 -7 15 17 41 33 15 10 11 11 -22 6 l-40 -6
45 31 c24 17 48 28 52 26 5 -3 7 0 6 7 -2 7 8 15 22 19 l25 7 -27 13 c-31 15
-37 31 -10 28 9 -1 37 8 62 19 59 28 105 40 96 24 -5 -7 0 -11 13 -11 11 0 51
-12 88 -26 38 -14 74 -26 81 -27 21 -1 64 -47 58 -62 -6 -16 21 -75 35 -75 8
0 -9 48 -21 60 -3 3 -6 19 -6 36 -2 30 -1 31 23 19 13 -7 30 -21 38 -31 14
-18 14 -18 15 1 1 19 2 19 20 -3 15 -19 17 -28 8 -52 -14 -41 -44 -61 -74 -49
-22 8 -24 6 -18 -15 6 -26 -14 -40 -37 -25 -11 7 -10 9 5 9 11 0 16 3 13 6 -3
4 -2 15 3 25 6 9 7 19 2 21 -4 2 -19 22 -35 45 -35 54 -63 62 -122 33 -54 -26
-54 -38 0 -16 21 9 45 16 55 16 19 0 72 -39 54 -40 -5 0 -14 4 -20 10 -6 6
-24 5 -49 -2 -62 -16 -142 -21 -162 -9 -16 9 -14 10 12 11 17 0 37 5 45 10 12
7 8 10 -15 10 -37 0 -105 -30 -125 -55 -14 -17 -14 -17 7 -7 27 15 55 16 33 2
-8 -5 -10 -10 -4 -10 5 0 15 5 22 12 9 9 18 9 37 0 15 -7 24 -8 20 -2 -8 14
-1 13 41 -5 20 -8 33 -19 30 -24 -3 -5 1 -14 9 -21 8 -7 12 -16 10 -21 -7 -10
27 -29 52 -29 16 1 16 2 -2 13 -39 23 -63 50 -58 63 8 22 29 16 48 -12 16 -25
73 -56 86 -48 4 2 10 -3 13 -12 4 -10 2 -13 -6 -8 -7 5 -8 3 -4 -5 5 -7 1 -20
-8 -30 -9 -10 -19 -29 -21 -42 -16 -82 -17 -89 -6 -89 6 0 11 11 11 25 0 27
39 74 62 76 7 0 4 4 -7 9 -13 5 -27 2 -40 -8 -11 -9 -2 2 19 25 22 23 44 39
49 36 6 -3 7 -1 3 5 -4 6 2 20 13 31 11 11 17 21 15 24 -6 6 49 15 108 16 43
2 48 -1 54 -23 3 -13 3 -34 -1 -44 -3 -11 -1 -23 5 -27 6 -4 10 10 10 39 0 32
5 48 18 55 16 9 16 10 0 16 -22 9 -24 57 -4 74 11 9 16 9 22 0 4 -7 3 -9 -3
-6 -5 3 -10 0 -10 -8 0 -9 12 -4 34 15 19 17 35 30 36 30 1 0 1 -20 -1 -45 -3
-28 0 -45 7 -45 6 0 11 -4 11 -9 0 -6 -16 -7 -35 -4 -24 4 -35 2 -35 -6 0 -8
13 -12 38 -10 21 2 43 0 50 -5 15 -9 16 6 1 21 -22 22 -20 103 2 103 5 0 9
-10 10 -22 0 -22 1 -22 9 -3 4 12 16 27 26 35 18 14 18 14 4 -5 -11 -15 -7
-14 13 4 l27 24 1 -34 c0 -30 1 -32 9 -11 9 22 33 35 88 48 l27 7 -25 -22
c-21 -19 -17 -19 25 5 28 16 79 38 115 50 65 22 65 22 25 23 -30 1 -36 4 -25
11 25 16 64 11 119 -16 38 -19 49 -29 39 -35 -9 -6 -5 -9 13 -9 30 0 82 -37
73 -51 -9 -16 36 -79 57 -79 10 0 19 5 19 11 0 5 5 7 11 3 8 -5 8 -9 -1 -14
-7 -4 -9 -13 -5 -20 6 -9 9 -9 15 0 5 8 10 3 14 -15 9 -35 -5 -55 -17 -24 -6
15 -11 19 -14 11 -6 -16 25 -52 44 -52 12 0 19 -30 13 -55 -1 -5 -3 -19 -4
-30 0 -11 -10 -23 -21 -27 -18 -5 -17 -6 5 -8 l25 -2 -25 -8 c-23 -7 -23 -8
-3 -9 14 -1 23 -9 26 -23 3 -13 5 -2 4 24 0 26 1 50 4 53 3 3 18 -30 32 -74
28 -82 29 -140 2 -205 -19 -44 -28 -16 -26 82 2 111 -9 101 -14 -13 -2 -48 -8
-92 -14 -98 -8 -8 -11 -6 -11 6 0 9 -5 17 -11 17 -8 0 -8 4 -2 12 6 7 10 40
11 73 l0 60 -13 -75 c-10 -48 -11 -78 -5 -84 14 -14 12 -46 -4 -75 -12 -22
-13 -20 -19 30 -4 35 -1 86 10 142 15 77 15 89 3 98 -12 7 -12 11 -2 17 10 7
10 21 -2 75 -13 67 -10 81 14 52 15 -19 30 -10 30 18 0 20 0 20 -15 1 -12 -16
-14 -16 -15 -3 0 9 -7 22 -15 29 -9 7 -15 29 -15 51 0 30 -4 39 -17 39 -13 0
-14 -3 -5 -12 14 -14 16 -48 3 -48 -10 0 -25 29 -23 45 1 10 -98 59 -105 51
-2 -2 8 -11 23 -21 15 -9 52 -42 82 -73 40 -39 49 -54 34 -50 -12 4 -22 5 -22
3 0 -1 7 -22 15 -45 19 -53 19 -75 0 -35 -26 57 -17 -10 10 -77 30 -74 31 -84
5 -40 -21 35 -38 45 -20 12 7 -14 8 -26 1 -38 -9 -15 -10 -13 -11 9 0 15 -9
37 -21 50 -19 23 -20 23 -10 2 14 -28 14 -89 -1 -152 -15 -65 -33 -72 -44 -18
l-8 42 -5 -60 c-3 -34 -14 -73 -24 -88 -21 -33 -32 -36 -16 -4 11 21 11 21
-17 -3 -66 -56 -94 -84 -94 -94 0 -6 5 -5 12 2 17 17 28 15 22 -5 -4 -13 -1
-12 11 4 25 33 103 94 102 80 -1 -30 4 -47 13 -47 6 0 10 18 10 41 0 28 -4 38
-12 33 -7 -4 -8 -3 -4 5 4 6 11 9 16 6 5 -3 17 11 26 32 l18 38 9 -63 c7 -45
7 -66 -1 -74 -8 -8 -10 -1 -7 28 l5 39 -12 -32 c-7 -17 -16 -35 -20 -39 -5 -4
-8 -15 -8 -25 0 -9 -16 -26 -35 -38 l-35 -20 0 22 c-1 21 -1 21 -11 3 -9 -14
-13 -15 -19 -5 -6 9 -10 6 -15 -13 -4 -15 -16 -35 -28 -45 -11 -10 -17 -12
-12 -4 5 9 3 12 -5 9 -13 -4 -16 -10 -25 -63 -3 -16 -2 -23 1 -15 8 18 104
112 104 102 0 -4 -10 -23 -21 -42 l-21 -35 21 19 c11 11 21 24 21 30 1 12 70
59 70 47 0 -4 -7 -16 -15 -27 -8 -10 -15 -23 -15 -28 0 -18 50 37 87 95 40 63
52 69 34 18 l-11 -32 21 19 c34 30 69 91 69 119 0 14 5 25 10 25 6 0 10 -6 10
-12 0 -7 11 -26 25 -43 l25 -30 -5 45 c-3 25 -2 59 3 75 l9 30 21 -45 c12 -25
21 -40 22 -34 0 6 -7 26 -16 44 -15 30 -15 35 0 66 9 19 16 45 16 57 0 34 19
-1 21 -38 1 -28 2 -27 11 10 5 22 8 71 6 108 -4 68 -3 69 14 47 10 -12 18 -36
18 -54 1 -25 2 -28 11 -14 17 31 -21 201 -53 236 l-21 22 29 1 c26 0 27 1 9
11 -11 5 -34 29 -51 52 l-31 43 31 12 31 13 -33 8 c-44 10 -76 42 -92 91 -8
23 -20 43 -27 46 -25 10 -13 21 32 27 48 8 71 26 33 26 -22 1 -22 1 5 18 28
17 35 32 16 32 -6 0 7 21 31 46 28 30 40 52 37 64 -3 11 1 24 9 31 7 6 14 21
13 33 0 11 3 44 7 72 4 31 2 59 -5 70 -9 17 -10 15 -11 -14 0 -18 -3 -31 -7
-29 -5 3 -8 -12 -7 -33 0 -22 -3 -37 -7 -34 -4 2 -13 -6 -20 -18 -11 -21 -11
-22 4 -9 24 19 21 3 -9 -53 -23 -43 -24 -48 -8 -42 11 4 -5 -18 -35 -48 -45
-46 -50 -54 -30 -50 15 3 10 -2 -15 -15 -24 -12 -33 -21 -25 -24 8 -3 1 -6
-16 -6 -25 -1 -43 12 -107 81 -43 45 -78 86 -78 90 0 4 15 8 33 8 23 0 28 3
18 9 -8 5 -28 7 -46 4 -21 -3 -35 0 -44 11 -11 14 -11 16 3 16 17 0 32 42 21
61 -5 7 -12 0 -21 -20 -7 -17 -17 -31 -23 -31 -19 0 -22 20 -7 42 23 32 20 45
-4 17 l-19 -24 -1 23 c0 13 -4 20 -10 17 -13 -8 -13 -5 2 36 6 19 20 40 30 47
10 7 18 21 19 30 0 13 2 13 6 3 4 -10 9 -8 20 10 l14 24 -7 -25 c-4 -19 0 -16
21 15 25 38 71 78 140 121 31 20 29 9 -4 -29 -14 -17 -13 -17 13 -7 40 15 95
2 135 -31 19 -16 37 -26 40 -24 7 8 -31 46 -62 61 -15 8 -25 19 -22 24 8 13
-22 13 -47 -1 -19 -10 -19 -9 -13 20 4 17 4 31 1 31 -8 0 -97 -60 -142 -97
-22 -18 -44 -30 -47 -26 -4 3 -7 1 -7 -6 0 -7 -6 -11 -12 -8 -7 2 -21 -9 -30
-25 -18 -29 -48 -38 -48 -15 0 16 -48 61 -75 71 -13 5 -16 9 -7 15 7 4 -17 14
-56 25 -37 10 -75 25 -84 33 -11 9 -29 14 -48 11 -16 -3 -30 0 -30 5 0 5 -16
7 -39 3 -30 -4 -42 -2 -56 14 -9 10 -46 28 -81 39 -71 23 -80 25 -88 12z m73
-35 l22 -23 -70 1 -70 1 21 23 c28 29 69 28 97 -2z m-129 -11 c-7 -8 -38 -29
-69 -46 -69 -39 -81 -53 -81 -97 0 -34 0 -34 -37 -27 -71 14 -142 13 -136 -2
3 -7 1 -13 -3 -13 -5 0 -20 -9 -34 -20 l-25 -20 35 13 c19 6 38 16 41 21 4 5
14 6 24 3 9 -4 14 -3 10 3 -7 12 41 12 70 1 14 -6 3 -10 -40 -15 -33 -3 -67
-11 -75 -17 -11 -8 -8 -9 15 -5 17 2 47 7 68 11 30 5 37 3 37 -10 0 -18 -43
-65 -60 -65 -7 0 -43 -14 -82 -31 -75 -33 -92 -32 -62 3 10 13 15 20 10 16 -5
-4 -15 4 -23 19 -13 25 -12 29 9 45 25 19 18 24 -12 8 -23 -13 -35 3 -15 20 8
7 12 16 9 21 -3 5 11 16 30 26 19 9 33 20 30 24 -2 4 9 10 26 14 16 4 32 11
35 16 4 5 16 9 28 9 16 0 18 3 9 9 -16 10 35 31 75 31 15 0 22 4 17 11 -4 7 9
10 39 8 31 -2 52 2 64 13 41 35 99 54 73 23z m218 -17 c30 -30 5 -37 -29 -8
-23 19 -23 19 -3 20 11 0 25 -5 32 -12z m-42 -19 c33 -10 92 -65 81 -76 -4 -3
-17 3 -30 15 -75 70 -221 70 -286 -2 -27 -29 -41 -33 -41 -13 0 24 64 76 105
86 43 10 120 5 171 -10z m130 -7 c-3 -5 15 -7 39 -6 28 2 45 -2 48 -11 3 -7
26 -16 51 -19 25 -4 46 -11 46 -16 0 -5 16 -14 34 -21 19 -7 33 -16 30 -21 -3
-4 6 -13 20 -19 14 -7 28 -20 31 -31 4 -10 11 -18 16 -18 5 0 9 -7 9 -16 0
-11 -6 -13 -22 -8 -13 4 -36 9 -53 10 -16 1 -43 7 -58 13 -16 6 -47 10 -70 10
-38 -1 -37 -2 17 -10 33 -5 63 -14 67 -20 3 -6 15 -9 25 -7 21 5 74 -18 74
-31 0 -14 -26 -32 -34 -23 -4 4 -5 -5 -1 -20 l7 -26 -59 24 c-32 13 -69 24
-83 24 -15 0 2 -10 41 -24 103 -36 166 -75 225 -139 60 -65 154 -194 154 -211
0 -6 -17 16 -38 49 -21 33 -53 73 -71 88 -18 15 -29 27 -25 27 17 0 -37 47
-106 91 -41 27 -80 53 -85 57 -6 5 -17 6 -24 4 -9 -3 -11 0 -6 8 6 10 4 12 -8
7 -10 -3 -17 -3 -17 2 0 4 -19 8 -42 9 -50 2 -40 -10 22 -27 46 -14 161 -69
194 -94 18 -13 18 -15 -12 -28 -37 -16 -39 -21 -47 -91 -4 -42 -3 -48 5 -29 6
13 11 34 12 46 1 13 15 31 30 41 15 11 28 25 28 32 0 6 4 12 8 12 12 0 43 -35
37 -41 -2 -3 12 -21 32 -40 20 -19 54 -61 75 -94 21 -33 38 -55 38 -50 0 6 6
1 12 -9 8 -15 8 -21 0 -24 -15 -5 -16 -39 -1 -48 7 -4 9 2 7 14 -2 12 1 21 6
21 5 -1 12 5 16 11 5 9 9 9 14 1 4 -6 2 -11 -3 -11 -6 0 -11 -13 -11 -30 0
-38 -12 -38 -59 0 -86 68 -307 160 -443 185 -26 5 -38 13 -38 24 0 13 -2 14
-9 2 -8 -12 -13 -12 -35 3 -28 18 -33 11 -12 -16 7 -10 24 -18 38 -18 32 0
240 -58 253 -71 5 -5 17 -9 27 -9 18 0 121 -48 166 -78 20 -13 21 -17 8 -24
-15 -8 -56 5 -56 18 0 3 5 2 10 -1 6 -3 10 -4 10 -1 0 19 -230 101 -380 136
-30 7 -69 20 -86 30 l-32 16 19 35 c10 19 18 30 19 26 0 -4 9 -3 19 2 14 8 25
6 42 -7 59 -44 126 -54 184 -27 35 17 66 65 41 65 -7 0 -19 -7 -26 -15 -16
-19 -33 -19 -71 0 -34 18 -30 35 10 35 15 0 36 7 47 16 18 15 18 15 -3 5 -12
-6 -38 -11 -57 -11 -42 0 -45 -11 -16 -57 11 -18 15 -33 10 -33 -17 0 -89 49
-102 70 -9 14 -15 16 -25 8 -25 -20 -24 0 0 24 21 21 43 92 38 124 0 6 17 17
38 24 45 14 46 40 2 39 -23 0 -24 -1 -6 -9 18 -8 18 -9 -5 -9 -18 -1 -31 8
-43 28 -9 16 -28 31 -41 35 -20 5 -23 12 -22 45 0 31 -6 47 -29 71 -16 16 -33
30 -38 30 -5 0 2 -9 16 -20 32 -25 40 -50 28 -83 -11 -29 -4 -37 44 -56 l30
-11 -34 5 c-61 9 -102 51 -71 70 16 10 12 34 -10 65 -11 15 -17 30 -13 34 9 9
75 7 69 -2z m-153 -36 c61 -27 79 -50 88 -106 14 -92 88 -138 107 -67 l9 32
11 -25 c8 -20 5 -34 -16 -72 -29 -55 -38 -59 -52 -23 -19 50 -91 145 -122 161
-17 9 -45 32 -63 51 l-32 35 -22 -23 c-11 -12 -21 -26 -21 -31 0 -4 -14 -15
-31 -23 -36 -19 -100 -84 -141 -143 -29 -42 -31 -43 -49 -26 -21 19 -26 78 -9
104 8 13 10 13 10 -2 0 -10 8 -22 18 -27 26 -14 62 13 62 45 0 27 -2 28 -48
15 -17 -5 -32 -6 -32 -1 0 5 10 10 23 12 19 3 22 10 25 50 2 26 10 52 18 59
13 11 14 9 9 -14 -4 -15 -4 -39 0 -54 l6 -26 31 38 c17 20 45 46 62 56 37 23
113 25 159 5z m10 -105 c23 -16 47 -42 53 -59 l12 -31 -54 27 c-30 15 -54 33
-54 42 0 8 -9 28 -19 43 l-18 28 -19 -23 c-11 -13 -35 -28 -54 -35 -27 -9 -30
-9 -15 0 11 7 36 28 54 48 l35 37 19 -24 c10 -13 37 -37 60 -53z m-133 -24 c0
-7 -16 -21 -35 -30 -27 -13 -35 -14 -35 -4 0 10 44 40 68 46 1 1 2 -5 2 -12z
m55 3 c3 -5 2 -10 -4 -10 -5 0 -16 -3 -25 -6 -11 -4 -16 -1 -16 10 0 18 35 22
45 6z m96 -57 c69 -37 117 -112 110 -170 -1 -7 5 -13 14 -13 8 0 15 -2 15 -4
0 -2 3 -12 7 -22 5 -14 2 -16 -20 -12 -16 3 -27 1 -27 -5 0 -6 -12 -28 -27
-49 -39 -57 -139 -102 -206 -95 -72 9 -157 64 -157 103 0 3 17 -9 38 -28 46
-42 115 -63 175 -54 69 11 176 86 121 86 -8 0 -13 -4 -9 -9 12 -20 -94 -76
-111 -58 -2 2 9 19 26 38 17 19 33 44 36 57 3 12 10 22 15 22 13 0 11 48 -2
56 -8 5 -8 9 1 14 16 10 -44 60 -73 61 -13 0 -16 3 -8 6 10 4 11 7 1 13 -9 6
-7 11 10 20 24 13 30 10 34 -13 6 -40 56 -64 56 -27 0 23 -10 26 -28 8 -9 -9
-12 -7 -10 13 2 19 7 25 20 21 28 -7 41 -28 29 -50 -8 -14 -5 -22 11 -36 17
-15 22 -16 30 -5 5 9 6 4 2 -14 -4 -16 -1 -33 6 -42 9 -11 9 -15 1 -15 -7 0
-9 -4 -6 -10 3 -5 2 -10 -3 -10 -6 0 -12 7 -16 15 -3 8 -10 15 -16 15 -7 0 -8
-5 -3 -12 4 -7 6 -22 4 -33 -3 -17 -1 -18 15 -5 16 13 17 13 11 -2 -10 -28 -1
-21 20 15 13 22 17 40 11 57 -4 14 -10 37 -13 52 -6 33 -58 94 -95 113 -82 42
-170 26 -238 -43 -38 -40 -43 -42 -30 -17 48 93 177 124 279 68z m-83 -31 c2
-6 -8 -17 -22 -24 -19 -8 -23 -14 -14 -20 9 -5 4 -8 -13 -8 -19 0 -28 6 -32
22 -8 29 1 42 20 26 12 -10 17 -9 25 6 10 18 29 17 36 -2z m-318 -6 c0 -10
-10 -14 -30 -14 -49 2 -188 -74 -255 -139 -60 -57 -58 -57 29 5 37 27 233 122
251 122 2 0 7 -20 11 -45 4 -29 14 -51 27 -60 20 -14 20 -15 3 -33 -16 -19
-16 -20 4 -25 31 -8 24 -59 -8 -64 -14 -2 -21 1 -17 7 3 5 -1 10 -9 10 -8 0
-13 -6 -11 -13 4 -8 -24 -21 -87 -40 -51 -16 -135 -48 -185 -72 -92 -43 -93
-44 -93 -20 0 13 -5 27 -10 30 -14 9 -40 -13 -39 -34 0 -11 3 -10 11 7 6 12
15 22 20 22 13 0 9 -27 -7 -43 -8 -8 -12 -17 -9 -20 3 -3 -10 -15 -28 -28 -18
-13 -36 -27 -39 -32 -10 -14 -29 1 -23 17 3 8 1 17 -5 21 -6 3 -11 16 -10 28
1 21 1 21 8 -2 8 -29 18 -18 46 49 28 66 110 182 165 234 49 46 137 95 225
127 62 22 65 22 65 5z m215 -19 c11 -9 14 -16 7 -21 -6 -3 -13 -2 -17 4 -9 15
-25 12 -25 -4 0 -21 19 -30 35 -16 9 7 20 8 30 3 12 -7 8 -12 -20 -22 -19 -7
-35 -17 -35 -22 0 -5 -8 -10 -17 -10 -17 -1 -17 -2 0 -6 11 -3 17 -14 17 -33
0 -37 14 -74 38 -98 11 -11 21 -25 24 -32 2 -6 16 -13 31 -13 24 -2 40 -17 17
-17 -46 0 -117 27 -150 56 -20 18 -40 31 -43 28 -3 -3 -8 4 -12 15 -3 12 -12
21 -20 21 -16 0 -27 27 -14 36 6 3 18 -1 27 -9 9 -8 23 -12 31 -9 8 3 11 0 7
-7 -4 -6 -3 -11 2 -11 6 0 12 7 16 15 4 10 -1 15 -16 15 -17 0 -19 3 -10 12
17 17 15 31 -8 46 -19 11 -20 11 -14 -12 8 -35 -9 -39 -38 -8 -28 31 -45 68
-26 55 26 -15 48 -10 54 14 9 33 21 29 21 -8 0 -30 19 -53 35 -43 4 3 5 18 2
33 -4 18 -1 32 6 36 10 6 12 1 8 -19 -4 -21 -1 -26 13 -26 16 0 17 3 8 19 -12
19 -7 51 9 51 4 0 16 -6 27 -13z m368 -34 c-11 -32 -47 -77 -51 -65 -2 6 9 27
23 47 30 39 37 44 28 18z m-253 -18 c7 -8 18 -15 25 -15 18 0 38 -51 25 -64
-13 -13 -30 8 -30 37 0 9 -6 17 -13 17 -25 0 -27 -12 -7 -38 24 -29 25 -48 6
-67 -18 -19 -40 3 -26 25 16 24 12 30 -20 30 -33 0 -38 -11 -15 -30 14 -11 14
-15 -2 -33 -18 -19 -17 -19 23 -15 23 3 47 9 55 13 17 11 -6 -21 -35 -48 -17
-15 -22 -16 -40 -3 -12 8 -21 24 -20 37 1 13 -6 29 -14 35 -19 14 -4 43 40 78
24 19 28 26 16 26 -10 0 -18 -4 -18 -9 0 -5 -10 -7 -22 -3 -17 4 -20 2 -15
-13 8 -19 -8 -45 -28 -45 -28 0 -9 45 30 72 46 31 67 35 85 13z m-229 -176
c10 -20 9 -21 -10 -16 -12 3 -19 2 -16 -3 8 -13 -17 -26 -90 -45 -134 -34
-384 -137 -385 -158 0 -4 -36 -62 -81 -127 -67 -99 -86 -120 -106 -120 -13 0
-22 -4 -19 -9 7 -11 -41 -44 -54 -36 -5 3 -12 0 -16 -6 -5 -8 -3 -9 7 -4 11 7
11 5 -1 -9 -21 -27 -24 -2 -4 36 10 18 17 36 16 41 -2 8 120 128 126 122 2 -2
-1 -12 -7 -23 -6 -12 -11 -33 -10 -49 1 -22 3 -19 11 15 5 23 13 40 17 37 19
-11 31 23 25 65 -6 34 -4 42 7 38 8 -3 32 9 54 27 88 70 282 156 420 186 40 9
66 21 78 36 23 28 24 28 38 2z m65 -64 c20 -13 52 -27 73 -31 20 -4 42 -11 49
-17 8 -6 12 -6 12 2 0 6 12 11 28 11 30 0 106 32 116 49 10 16 37 13 58 -6 11
-9 74 -32 141 -50 132 -37 156 -49 111 -57 -16 -4 -75 -21 -131 -39 -95 -31
-101 -31 -91 -12 10 19 10 19 -13 -2 -27 -24 -179 -75 -224 -75 -28 1 -168 43
-207 63 -10 5 -18 5 -20 -1 -2 -5 -44 4 -96 20 -50 17 -103 30 -117 30 -14 0
-28 7 -32 15 -8 22 4 30 21 16 10 -9 24 -7 61 9 25 11 85 31 131 44 l84 25 49
-32 c27 -18 63 -40 80 -49 31 -17 43 -48 19 -48 -7 0 -40 23 -72 50 -33 27
-62 47 -65 44 -6 -5 116 -131 142 -145 15 -9 17 -4 17 56 0 61 -1 65 -23 65
-13 0 -49 16 -81 35 -32 19 -67 35 -78 35 -10 0 -16 5 -13 10 10 16 32 12 71
-15z m938 -187 c12 12 26 -22 20 -49 -3 -17 1 -32 11 -43 9 -9 13 -16 10 -16
-4 0 0 -12 10 -26 28 -43 11 -36 -29 11 -20 25 -41 43 -46 40 -5 -3 -12 0 -16
6 -4 8 -3 9 4 5 7 -4 12 -1 12 9 0 11 -5 15 -15 12 -8 -4 -17 -1 -21 5 -5 7
-2 8 6 3 8 -5 11 -3 8 6 -3 8 -10 13 -16 12 -6 -2 -9 3 -6 11 3 8 0 17 -7 22
-8 5 -10 3 -4 -7 6 -11 5 -12 -5 -2 -11 10 -11 15 0 28 11 14 16 13 45 -9 18
-14 36 -22 39 -18z m120 -16 c-19 -5 -54 17 -54 33 0 11 8 9 34 -8 18 -12 27
-23 20 -25z m-1742 4 c7 -11 -11 -56 -24 -56 -4 0 -8 13 -8 30 0 23 -4 28 -16
23 -14 -5 -14 -3 -3 15 11 17 16 19 29 9 8 -7 18 -16 22 -21z m1688 -16 c-10
-6 8 -27 38 -45 12 -6 12 -3 2 16 -13 24 -13 24 9 5 11 -11 28 -32 35 -48 14
-27 14 -27 -6 -17 -19 11 -19 9 3 -21 53 -71 50 -72 -16 -10 l-69 65 60 -65
c33 -36 66 -75 72 -87 15 -27 33 -73 28 -73 -1 0 -19 24 -39 53 -21 30 -49 64
-65 78 l-27 24 21 -25 c36 -43 35 -49 -3 -28 -31 17 -38 27 -39 52 -2 51 -10
84 -23 100 -8 9 -10 23 -6 33 5 10 7 23 6 28 -1 6 6 1 14 -9 10 -13 11 -22 5
-26z m-1532 -7 c-8 -10 -13 -10 -23 0 -9 8 -10 16 -3 24 8 10 13 10 23 0 9 -8
10 -16 3 -24z m602 -38 c10 -12 16 -13 28 -3 13 10 14 10 8 1 -4 -7 -2 -13 3
-13 17 0 13 -47 -5 -54 -9 -3 -35 -6 -59 -6 -42 0 -43 0 -32 25 8 15 18 23 27
20 10 -4 10 -1 -2 9 -10 7 -18 23 -18 35 0 18 3 20 18 12 10 -5 24 -17 32 -26z
m-240 -95 c12 1 11 4 -4 15 -11 8 -16 18 -12 22 4 4 11 1 15 -6 5 -7 13 -11
19 -7 14 9 23 -19 9 -33 -25 -25 -77 4 -77 43 1 19 2 18 18 -6 9 -16 23 -28
32 -28z m1211 -70 c38 -37 58 -64 53 -71 -4 -8 -3 -9 4 -5 9 5 12 -8 12 -46
l0 -53 -20 25 c-13 17 -15 27 -7 32 15 9 -26 96 -48 105 -29 11 -27 -6 4 -44
43 -53 40 -73 -6 -32 -26 22 -38 42 -39 61 -1 15 -7 35 -15 44 -16 20 -21 44
-8 44 5 0 37 -27 70 -60z m2 -113 c4 3 14 -11 23 -32 16 -39 13 -90 -8 -128
-14 -28 -21 -14 -7 16 7 15 8 34 4 44 -25 56 -41 112 -30 103 7 -5 15 -7 18
-3z m-153 -167 c-7 -13 -8 -47 -4 -95 4 -41 4 -75 1 -75 -8 0 -31 110 -30 141
1 34 36 91 41 67 2 -10 -2 -26 -8 -38z"/>
<path d="M1127 1669 c-22 -11 -37 -23 -34 -25 8 -8 77 24 77 35 0 13 3 14 -43
-10z"/>
<path d="M1842 1765 c-33 -18 -34 -20 -6 -23 14 -1 27 4 31 14 8 21 2 23 -25
9z"/>
<path d="M1800 1551 c0 -5 6 -14 14 -20 16 -13 32 2 21 19 -8 12 -35 13 -35 1z"/>
<path d="M2081 1367 c-17 -17 -13 -51 10 -76 37 -39 69 -14 55 43 -7 28 -49
49 -65 33z m32 -22 c-3 -9 3 -25 12 -35 10 -11 13 -20 7 -20 -13 0 -42 39 -42
57 0 7 7 13 15 13 9 0 12 -6 8 -15z"/>
<path d="M2176 1254 c-9 -24 31 -65 43 -45 12 18 -2 55 -21 59 -9 2 -18 -5
-22 -14z"/>
<path d="M1584 1384 c-4 -10 -12 -22 -18 -26 -6 -4 -8 -10 -5 -13 4 -3 17 3
30 14 19 15 21 22 12 32 -10 10 -14 8 -19 -7z"/>
<path d="M1100 1475 c-16 -10 -48 -14 -87 -13 -35 1 -66 -2 -70 -5 -3 -4 0 -7
7 -7 7 0 27 -16 44 -36 28 -32 36 -35 83 -36 57 0 125 27 129 52 1 8 3 20 4
25 8 34 -3 34 -32 2 -18 -20 -51 -44 -73 -53 -39 -16 -40 -16 -24 2 16 18 53
84 47 84 -2 -1 -14 -7 -28 -15z m-59 -35 c6 0 7 -6 3 -12 -6 -10 -4 -10 7 0
19 17 34 15 19 -4 -18 -21 -64 -14 -68 10 -3 14 0 17 13 12 9 -3 21 -6 26 -6z"/>
<path d="M866 1348 c-20 -28 -21 -67 -1 -74 8 -4 27 1 41 11 20 13 25 23 22
48 -4 41 -38 49 -62 15z m51 -4 c5 -15 -34 -61 -43 -51 -5 4 -2 12 5 17 8 5
12 17 8 30 -4 16 -1 20 10 18 9 -2 18 -8 20 -14z"/>
<path d="M584 948 c-15 -18 -31 -32 -36 -30 -5 1 -7 -2 -3 -8 4 -6 1 -19 -5
-28 -7 -9 4 1 25 23 35 39 60 75 51 75 -2 0 -17 -15 -32 -32z"/>
<path d="M1644 1280 c-5 -5 -41 -25 -79 -44 -39 -19 -64 -35 -57 -35 17 -1
101 42 132 68 14 11 23 20 20 21 -4 0 -10 -4 -16 -10z"/>
<path d="M1263 1238 c-33 -37 -47 -65 -34 -73 9 -5 71 80 71 97 0 13 -4 10
-37 -24z"/>
<path d="M1648 1233 c-32 -35 -62 -82 -56 -88 3 -3 24 22 47 55 46 65 49 75 9
33z"/>
<path d="M2239 1763 c-13 -14 -17 -23 -9 -19 13 7 13 6 0 -6 -23 -20 -47 -53
-32 -44 20 12 14 -9 -26 -88 -22 -42 -37 -76 -35 -76 2 0 13 5 24 10 11 6 19
7 19 1 0 -5 -8 -12 -17 -15 -15 -6 -15 -8 -3 -16 26 -17 32 -11 27 23 -9 57
50 127 108 127 14 0 25 -2 25 -5 0 -3 -16 -28 -35 -57 -27 -39 -33 -54 -24
-64 9 -11 8 -14 -1 -14 -8 0 -11 -3 -7 -6 3 -3 14 -1 24 5 13 7 14 10 4 11
-11 0 -9 4 5 15 16 13 16 14 2 9 -25 -9 -22 0 13 41 41 46 52 45 44 -6 -4 -24
-3 -39 2 -36 5 3 10 22 11 43 2 20 5 41 8 46 3 4 -1 8 -9 8 -10 0 -13 7 -10
21 5 20 4 20 -18 9 l-24 -13 20 23 20 23 -22 -12 c-12 -6 -25 -16 -28 -21 -3
-6 -11 -10 -17 -10 -7 0 -6 6 2 15 21 25 3 17 -34 -16 l-35 -30 9 33 c6 18 19
41 31 51 24 19 44 23 33 6 -5 -8 -2 -9 11 -2 26 15 65 -7 72 -40 4 -22 8 -25
19 -16 17 14 18 33 2 22 -7 -4 -5 5 5 20 21 32 22 44 2 27 -8 -6 -20 -10 -27
-8 -8 3 -1 11 17 21 37 20 25 23 -13 3 -25 -13 -82 -19 -82 -9 0 2 16 11 36
19 20 8 34 17 31 20 -4 4 -44 -8 -102 -31 -20 -8 -20 -8 -1 13 27 32 14 27
-15 -5z"/>
<path d="M2468 1724 c-5 -4 -8 -21 -8 -38 0 -21 3 -27 11 -19 6 6 9 23 7 38
-2 15 -6 23 -10 19z"/>
<path d="M590 1663 c0 -6 5 -15 10 -18 6 -4 8 -11 4 -16 -7 -12 23 -59 38 -59
6 0 1 11 -11 24 -13 14 -21 29 -17 34 3 5 -1 18 -9 28 -8 10 -15 14 -15 7z"/>
<path d="M2393 1612 c-13 -15 -23 -31 -23 -37 1 -13 50 43 50 56 0 13 -3 12
-27 -19z"/>
<path d="M2417 1594 c-16 -19 -39 -40 -52 -46 -14 -6 -22 -19 -22 -34 0 -20 2
-22 14 -13 10 9 11 14 3 19 -7 4 -2 13 14 24 14 9 26 12 26 6 0 -22 30 -8 49
24 29 46 26 54 -5 17 -14 -17 -31 -31 -37 -30 -8 0 -8 2 1 6 10 4 48 63 40 63
-2 0 -16 -16 -31 -36z"/>
<path d="M550 1615 c0 -23 40 -74 55 -69 17 7 10 24 -10 24 -8 0 -21 12 -29
28 -8 15 -15 23 -16 17z"/>
<path d="M650 1471 c0 -6 9 -16 21 -24 14 -10 16 -16 8 -19 -9 -3 -7 -7 5 -11
10 -4 15 -3 11 3 -3 6 -1 10 5 10 6 0 -1 11 -16 25 -30 28 -34 30 -34 16z"/>
<path d="M2180 1445 c0 -2 9 -9 19 -15 14 -7 29 -6 53 5 32 14 32 14 6 15 -14
0 -28 -6 -31 -12 -4 -10 -7 -10 -18 0 -13 12 -29 16 -29 7z"/>
<path d="M2315 1389 c3 -4 1 -10 -5 -14 -14 -8 -13 -25 2 -25 6 0 8 3 4 7 -3
4 6 12 21 18 l28 12 -27 5 c-15 3 -25 2 -23 -3z"/>
<path d="M586 1238 c-3 -13 -6 -27 -6 -33 1 -15 30 27 30 42 0 22 -17 15 -24
-9z"/>
<path d="M2005 1160 c-18 -8 -17 -9 8 -9 16 -1 37 -6 48 -11 10 -6 19 -7 19
-2 0 7 -45 34 -53 31 -1 0 -11 -4 -22 -9z"/>
<path d="M930 1113 c-19 -9 -30 -17 -24 -20 6 -2 31 5 55 17 24 11 35 19 24
19 -11 0 -36 -8 -55 -16z"/>
<path d="M1986 1121 c6 -6 28 -14 50 -17 73 -10 85 -15 124 -50 22 -20 40 -32
40 -28 0 15 -49 63 -81 80 -39 20 -149 32 -133 15z"/>
<path d="M938 1080 l-33 -29 30 0 c25 0 27 2 10 8 -18 7 -17 9 13 25 32 17 40
26 22 26 -5 0 -24 -13 -42 -30z"/>
<path d="M1800 1073 c-25 -9 -70 -56 -70 -73 0 -18 -19 -40 -33 -40 -6 0 -5 5
0 13 6 6 13 26 16 42 5 25 3 22 -14 -12 -24 -51 -35 -54 -48 -10 l-10 32 2
-30 c2 -16 8 -40 15 -52 10 -18 9 -22 -6 -26 -9 -2 -25 3 -34 11 -12 10 -21
11 -35 3 -17 -10 -17 -10 0 -11 9 0 17 -4 17 -8 0 -5 6 -9 13 -10 6 0 23 -4
36 -8 17 -5 22 -4 17 4 -12 19 9 14 28 -7 21 -23 29 -61 13 -61 -7 -1 1 -8 16
-16 31 -17 47 -50 47 -96 0 -27 -2 -29 -17 -17 -10 9 -7 -3 10 -32 15 -25 27
-57 28 -70 0 -13 6 -40 13 -59 l13 -35 1 54 c1 30 -6 67 -14 82 -8 16 -16 53
-17 83 -2 33 -13 74 -30 107 -28 57 -24 79 16 79 11 0 35 16 52 36 20 22 39
35 50 32 16 -3 15 -7 -9 -35 -37 -44 -16 -42 22 1 46 53 98 76 68 31 -9 -14
-13 -25 -9 -25 12 0 35 16 34 24 -3 22 3 26 35 26 20 0 51 -9 68 -19 38 -24
71 -13 34 11 -53 35 -129 68 -155 68 -21 0 -24 -3 -13 -10 8 -5 12 -12 8 -15
-3 -4 -31 5 -61 19 -54 26 -69 29 -97 19z m75 -27 c18 -8 36 -12 39 -8 3 3 6
0 6 -7 0 -7 11 -12 28 -11 50 4 58 -2 12 -10 -25 -4 -56 -3 -70 3 -59 23 -95
26 -117 11 -13 -8 -23 -12 -23 -9 0 8 63 45 78 45 7 0 28 -6 47 -14z m-45 -60
c0 -8 -8 -24 -18 -36 -22 -28 -62 -20 -62 12 0 11 5 18 13 15 6 -2 11 -10 10
-16 -5 -21 24 -11 37 14 15 28 20 31 20 11z"/>
<path d="M832 1000 c-18 -10 -42 -30 -54 -45 -21 -26 -21 -27 -1 -17 26 14
108 82 96 81 -4 -1 -23 -9 -41 -19z"/>
<path d="M887 952 c-26 -29 -67 -92 -67 -105 0 -4 16 8 35 28 20 19 40 35 46
35 5 0 9 6 7 14 -2 8 6 21 16 29 16 12 17 15 4 20 -10 3 -26 -5 -41 -21z"/>
<path d="M2053 944 c-12 -13 -22 -28 -22 -31 0 -4 -8 -10 -18 -14 -12 -5 -8
-7 14 -6 27 2 32 5 27 21 -7 20 -3 19 51 -18 l30 -20 -18 20 c-9 12 -15 23
-13 25 3 2 -3 14 -12 26 l-17 22 -22 -25z"/>
<path d="M1337 925 c-9 -8 -20 -15 -26 -15 -6 0 -11 -4 -11 -10 0 -14 22 -12
44 5 11 8 31 15 45 15 29 0 20 13 -13 17 -13 2 -31 -3 -39 -12z"/>
<path d="M810 923 c-60 -17 -114 -53 -80 -53 5 0 7 -13 3 -32 -5 -24 -3 -29 7
-23 10 6 12 4 7 -9 -4 -10 -7 -24 -7 -31 0 -9 -14 -15 -37 -17 -37 -3 -38 -4
-38 -43 0 -22 -3 -43 -7 -46 -5 -3 -5 -32 0 -66 17 -122 -13 -85 -41 52 -3 11
-5 0 -6 -25 0 -26 3 -50 8 -55 6 -6 11 -39 13 -75 l3 -65 21 43 22 42 17 -51
c9 -29 27 -68 40 -87 l24 -35 3 39 3 39 15 -32 c8 -18 18 -33 21 -33 4 0 9
-12 13 -27 3 -16 15 -39 26 -53 l20 -25 0 29 0 30 38 -44 c20 -24 40 -53 43
-64 6 -20 7 -20 14 -3 4 10 2 37 -5 60 -8 23 -14 44 -14 47 -1 3 -9 16 -19 30
-21 31 -22 10 -1 -31 23 -45 12 -45 -30 1 -32 36 -36 38 -36 18 -1 -22 -1 -23
-15 -4 -8 11 -15 30 -15 43 0 13 -4 23 -10 23 -12 0 -13 70 -2 88 6 9 20 2 54
-27 25 -22 48 -37 52 -34 3 3 6 -3 6 -15 0 -11 5 -33 12 -49 7 -15 12 -32 13
-38 2 -15 105 -122 105 -109 0 5 -6 16 -12 23 -11 11 -10 12 2 6 39 -21 80
-58 80 -72 0 -15 2 -15 13 1 12 17 15 16 45 -9 l32 -27 0 24 c0 18 2 20 10 8
9 -13 10 -13 10 0 1 9 7 4 15 -11 8 -14 25 -34 39 -43 30 -19 45 -21 28 -4 -7
7 -12 18 -12 26 0 10 8 7 28 -8 15 -12 47 -35 70 -51 33 -23 43 -36 39 -50 -8
-29 11 -23 32 12 18 30 18 30 25 7 7 -22 7 -22 15 -3 5 11 31 33 59 48 55 30
67 33 56 15 -4 -7 4 -3 17 8 13 12 29 19 36 17 7 -2 18 5 25 16 7 12 20 21 28
21 9 0 26 7 38 16 19 13 22 13 22 1 0 -8 -7 -20 -15 -27 -9 -7 -13 -15 -11
-18 3 -3 24 12 46 32 41 37 60 45 60 25 0 -7 9 0 21 15 25 31 43 34 34 5 -6
-18 -1 -15 28 12 35 33 43 55 11 28 -12 -10 -11 -4 5 21 26 44 27 58 1 35 -23
-21 -26 -9 -5 19 11 14 12 22 4 27 -7 4 -9 17 -5 33 4 15 11 24 16 21 13 -8
136 110 143 137 5 19 5 19 -14 2 -19 -17 -19 -16 -13 32 3 27 7 57 9 66 3 16
-33 64 -41 55 -2 -2 1 -18 7 -36 19 -55 7 -120 -36 -185 -32 -47 -40 -54 -46
-39 -6 17 -7 16 -13 -4 -4 -11 -14 -27 -23 -35 -15 -11 -16 -11 -10 5 9 24 2
22 -29 -9 -14 -15 -19 -24 -10 -21 32 13 44 -2 39 -46 -7 -53 -21 -80 -38 -73
-8 3 -15 0 -17 -6 -2 -6 -10 -9 -16 -7 -9 3 -8 10 6 24 10 11 24 36 30 54 14
41 14 41 3 41 -5 0 -11 -13 -14 -29 -8 -37 -51 -88 -106 -123 -49 -31 -70 -36
-51 -13 19 23 2 18 -35 -11 -19 -14 -41 -27 -50 -28 -9 -1 -20 -7 -23 -12 -12
-16 -121 -64 -116 -50 3 7 19 20 37 28 35 17 69 43 128 99 21 20 41 34 44 31
2 -3 19 9 37 26 18 18 42 39 53 47 19 15 19 15 -10 9 l-30 -6 35 26 c19 15 35
32 35 39 1 7 6 21 12 32 6 11 18 45 27 75 15 52 15 55 -3 73 -19 19 -19 19
-17 -11 2 -30 1 -31 -16 -15 -21 19 -23 8 -3 -27 8 -14 14 -38 14 -55 0 -26
-2 -27 -9 -10 -8 18 -9 17 -9 -7 -1 -15 -5 -30 -11 -33 -5 -3 -10 -11 -10 -16
0 -6 5 -7 12 -3 7 4 8 3 4 -5 -4 -6 -11 -9 -16 -6 -5 3 -21 -12 -36 -35 -15
-22 -33 -40 -40 -40 -7 0 -18 -8 -23 -17 -6 -10 -11 -13 -11 -8 0 6 -9 -8 -19
-30 -11 -22 -20 -33 -21 -25 0 10 -6 6 -15 -10 -9 -15 -15 -19 -15 -10 0 12
-3 11 -11 -2 -13 -23 -27 -23 -31 -1 -3 15 -5 14 -10 -5 -4 -14 -2 -20 4 -15
7 4 8 1 4 -6 -5 -7 -11 -10 -14 -7 -3 4 -16 -1 -29 -9 -25 -17 -32 -5 -8 15 8
7 15 16 15 21 0 5 -13 -5 -30 -23 -38 -40 -38 -49 3 -37 l32 9 -40 -35 c-49
-42 -64 -43 -100 -5 -16 16 -33 30 -37 30 -5 0 7 -14 27 -31 47 -42 45 -60 -2
-19 -21 17 -47 39 -59 49 -12 9 -27 15 -33 13 -7 -2 -21 4 -32 14 -10 9 -19
14 -19 10 0 -4 -19 7 -42 25 -24 19 -37 26 -29 16 10 -13 10 -17 1 -17 -7 0
-10 -7 -6 -17 5 -13 -1 -10 -17 7 -33 34 -67 61 -67 54 0 -4 -6 -3 -13 2 -7 5
1 -4 18 -19 l30 -28 -50 27 c-27 14 -60 37 -72 50 -12 13 -23 19 -25 13 -4
-12 -58 61 -58 78 0 6 13 0 30 -15 16 -14 38 -26 48 -27 17 -1 18 3 12 32 -6
26 -5 33 7 33 8 0 11 -5 7 -12 -4 -7 -4 -10 1 -6 4 4 27 -4 51 -17 30 -17 41
-20 37 -10 -3 8 -11 15 -18 15 -7 0 -25 10 -41 22 -15 13 -35 22 -44 20 -8 -1
-25 14 -38 35 -13 21 -21 30 -18 21 9 -29 -1 -20 -28 26 -39 67 -51 124 -38
177 10 39 9 42 -4 25 -20 -28 -17 -113 5 -163 11 -23 17 -43 15 -46 -2 -2 16
-22 41 -45 28 -25 45 -49 45 -64 0 -20 -6 -16 -53 30 -29 29 -58 52 -64 52
-15 0 -53 53 -54 77 0 16 -1 16 -8 -2 -8 -19 -8 -19 -19 2 -7 12 -12 29 -12
37 0 9 -5 15 -11 13 -16 -3 -32 61 -26 105 l5 38 -19 -23 c-23 -28 -24 -20 -2
29 9 22 15 55 14 74 -1 25 1 31 8 21 5 -8 7 -21 4 -30 -5 -13 -3 -14 7 -4 11
10 11 18 2 38 -15 32 -15 38 -1 29 7 -4 9 0 5 14 -4 12 -2 23 5 28 8 5 10 3 4
-7 -4 -8 3 -4 16 8 24 24 24 33 -1 26z m-93 -205 c1 -18 11 -72 22 -120 14
-59 19 -102 14 -133 -6 -46 -23 -45 -23 2 0 12 -6 23 -12 26 -7 2 -10 8 -6 12
4 4 14 2 23 -5 20 -17 19 -6 -1 15 -15 14 -17 14 -29 -1 -11 -15 -14 -11 -23
32 -21 95 -21 107 -1 133 10 13 19 29 19 35 0 6 -7 2 -15 -8 -14 -19 -15 -19
-15 5 0 30 7 39 30 39 11 0 16 -10 17 -32z m63 -178 c1 8 5 3 10 -11 9 -30 2
-76 -11 -85 -5 -3 -9 12 -9 33 0 21 -3 49 -5 63 -5 22 -4 22 4 5 7 -14 10 -16
11 -5z"/>
<path d="M2143 898 c13 -18 28 -40 32 -48 8 -13 7 -13 -8 -1 -25 20 -21 6 13
-41 35 -48 40 -28 9 35 -12 23 -22 44 -21 47 1 8 -30 40 -40 40 -5 0 2 -15 15
-32z"/>
<path d="M936 865 c-6 -17 10 -30 19 -15 4 6 15 8 26 5 31 -10 22 2 -10 13
-23 8 -31 7 -35 -3z"/>
<path d="M1991 866 c-18 -22 4 -29 36 -12 16 8 23 15 16 16 -6 0 -18 2 -26 5
-7 3 -19 -1 -26 -9z"/>
<path d="M1925 836 c-22 -7 -44 -13 -48 -13 -5 -1 -11 -4 -14 -7 -3 -3 18 -4
47 -2 28 2 56 8 62 14 17 17 -5 20 -47 8z"/>
<path d="M1656 823 c2 -8 -6 -13 -19 -13 -21 0 -21 -1 3 -13 32 -16 86 -107
95 -157 5 -29 2 -47 -11 -69 -10 -16 -21 -28 -26 -25 -4 3 -8 0 -8 -5 0 -19
18 -12 45 16 13 15 23 34 21 43 -29 114 -45 155 -68 181 -15 16 -27 32 -27 35
0 2 -1 8 -4 12 -2 4 -2 1 -1 -5z"/>
<path d="M818 784 c-14 -32 -18 -56 -13 -78 3 -17 6 -44 6 -61 0 -16 3 -46 6
-65 7 -34 7 -33 13 20 4 30 3 63 -2 72 -14 29 -9 92 12 126 11 17 15 32 9 32
-5 0 -19 -21 -31 -46z"/>
<path d="M2128 790 c11 -25 22 -52 26 -60 3 -8 4 3 1 24 -2 22 -14 49 -25 60
l-21 21 19 -45z"/>
<path d="M867 750 c-30 -68 -28 -101 4 -71 14 13 18 26 14 44 -4 15 0 37 9 56
9 17 12 31 8 31 -5 0 -21 -27 -35 -60z"/>
<path d="M1277 783 c-15 -17 -37 -62 -52 -111 -26 -82 -26 -84 -8 -105 21 -26
35 -37 46 -37 4 0 -1 10 -12 22 -31 32 -34 52 -16 110 19 64 58 126 88 138 21
8 21 9 1 9 -11 1 -32 -11 -47 -26z"/>
<path d="M1105 783 c-18 -14 -19 -15 -1 -9 16 5 17 4 6 -9 -10 -13 -9 -15 8
-15 24 0 36 24 19 38 -8 7 -18 5 -32 -5z"/>
<path d="M1831 778 c-6 -13 -10 -17 -10 -10 -1 6 -6 12 -12 12 -8 0 -7 -5 1
-15 7 -9 15 -13 18 -11 2 3 13 1 24 -5 17 -9 18 -8 9 9 -6 11 -8 22 -5 25 3 3
0 8 -5 12 -6 3 -15 -4 -20 -17z"/>
<path d="M975 745 c-34 -33 -32 -55 3 -23 15 14 36 30 47 36 19 11 19 11 -3
12 -13 0 -34 -11 -47 -25z"/>
<path d="M1940 763 c26 -10 70 -44 70 -54 0 -6 -15 0 -32 13 l-33 23 29 -35
c16 -19 35 -48 43 -65 l14 -30 -6 30 c-3 17 -7 42 -9 57 -4 38 -34 68 -65 67
-16 0 -20 -3 -11 -6z"/>
<path d="M2070 761 c0 -8 20 -47 45 -89 25 -41 45 -80 45 -88 0 -7 5 -16 10
-19 19 -12 10 46 -15 93 -29 56 -84 123 -85 103z"/>
<path d="M1402 730 c-49 -11 -72 -37 -72 -81 0 -49 8 -69 29 -69 14 0 14 -2 1
-10 -10 -6 -11 -10 -2 -10 6 0 20 -8 30 -17 11 -10 33 -26 50 -35 25 -13 32
-24 32 -48 0 -30 -17 -44 -83 -64 -26 -8 -9 -29 19 -23 14 2 26 2 28 -2 7 -10
147 3 144 14 -1 6 -18 15 -37 22 -46 16 -61 33 -54 65 3 18 16 32 39 43 18 8
49 31 69 49 30 29 35 40 35 78 0 47 -16 70 -55 82 -33 10 -138 13 -173 6z
m164 -31 c29 -8 42 -15 36 -21 -6 -6 -20 -7 -32 -3 -22 7 -158 9 -190 3 -8 -2
-16 2 -18 7 -6 22 133 31 204 14z m-136 -49 c12 -8 9 -10 -12 -10 -35 0 -36
-19 -2 -59 14 -17 22 -31 17 -31 -4 -1 3 -10 16 -20 31 -26 17 -26 -20 1 -16
11 -27 25 -24 30 4 5 2 9 -3 9 -5 0 -17 11 -26 25 -15 23 -15 26 4 45 23 23
29 24 50 10z m148 -15 c12 -11 11 -17 -3 -39 -10 -14 -24 -26 -32 -26 -11 0
-13 4 -6 13 6 6 13 22 16 35 4 18 1 22 -18 22 -32 0 -40 -38 -14 -66 23 -24
20 -38 -13 -55 -12 -6 -18 -7 -14 -1 3 5 -5 13 -19 16 -14 4 -25 13 -25 21 0
8 -4 15 -9 15 -13 0 -9 53 4 62 6 4 22 8 37 8 15 0 30 5 33 10 8 12 44 4 63
-15z"/>
<path d="M1166 657 c-17 -52 -24 -155 -12 -202 2 -11 5 -23 5 -27 1 -5 7 -8
15 -8 8 0 18 -4 21 -10 4 -6 -1 -7 -12 -3 -10 4 -2 -7 18 -25 25 -21 47 -32
68 -32 17 0 31 -5 31 -12 0 -6 3 -8 6 -5 4 4 1 13 -5 21 -7 9 -8 17 -2 20 5 3
11 2 13 -4 2 -6 26 -12 53 -14 28 -2 38 -2 23 1 -18 3 -28 10 -28 21 0 14 -7
17 -39 14 -28 -3 -52 3 -83 20 -53 29 -67 45 -68 81 0 19 -4 26 -12 21 -8 -5
-9 -2 -3 12 4 10 11 40 16 67 4 26 17 60 28 76 24 34 27 49 7 32 -10 -9 -15
-9 -18 -1 -2 6 -12 -13 -22 -43z m66 -271 c8 -8 23 -16 34 -19 15 -4 13 -5 -7
-6 -14 0 -34 8 -44 19 -20 22 -4 28 17 6z"/>
<path d="M970 650 c-18 -34 -23 -113 -8 -133 11 -15 13 -9 10 47 -2 35 1 74 8
85 6 12 8 21 6 21 -3 0 -10 -9 -16 -20z"/>
<path d="M1896 600 c33 -36 69 -99 61 -106 -2 -3 -12 7 -21 21 -9 14 -21 23
-26 20 -18 -11 -10 -32 15 -43 14 -6 25 -20 26 -29 0 -11 4 -8 11 10 8 24 6
37 -16 79 -19 36 -22 49 -11 44 22 -8 18 2 -6 15 -15 8 -19 8 -15 0 11 -17 -5
-13 -28 6 -12 10 -7 2 10 -17z"/>
<path d="M1050 610 c-8 -5 -11 -10 -6 -10 5 0 0 -11 -13 -24 -12 -13 -24 -41
-26 -62 -4 -34 -4 -35 3 -9 12 44 29 71 58 94 26 21 13 30 -16 11z"/>
<path d="M2008 544 c2 -41 7 -62 14 -58 12 8 5 101 -8 114 -5 5 -8 -18 -6 -56z"/>
<path d="M1063 558 c-26 -29 -46 -68 -39 -75 3 -3 8 2 12 11 3 9 10 14 14 11
5 -3 6 5 2 17 -4 16 -2 19 9 13 8 -5 11 -4 6 0 -4 5 0 17 10 27 9 10 14 18 11
18 -2 0 -14 -10 -25 -22z"/>
<path d="M850 564 c0 -18 44 -77 60 -82 10 -3 9 3 -6 19 -11 13 -28 35 -37 49
-10 13 -17 20 -17 14z"/>
<path d="M1092 558 c-13 -16 -17 -39 -10 -58 3 -8 13 -38 21 -66 8 -28 27 -64
41 -79 14 -15 23 -32 20 -37 -3 -4 0 -7 8 -6 7 2 12 -4 10 -13 -3 -19 30 -51
49 -47 8 2 13 -4 13 -14 -1 -10 4 -14 12 -11 18 6 7 53 -15 70 -33 24 -116
105 -117 114 -1 5 -2 21 -3 35 0 14 -5 22 -11 19 -14 -9 -12 10 5 52 19 45 19
49 -2 32 -15 -12 -16 -12 -10 4 8 20 4 22 -11 5z"/>
<path d="M1982 516 c0 -20 4 -39 9 -42 12 -7 11 47 0 65 -6 10 -9 2 -9 -23z"/>
<path d="M1320 525 c-7 -8 -11 -15 -9 -16 45 -9 47 -8 42 11 -6 24 -16 25 -33
5z"/>
<path d="M1710 513 c-8 -3 -18 -10 -21 -15 -3 -4 -26 -9 -52 -11 -26 -1 -47
-7 -47 -13 0 -17 37 -47 44 -36 3 6 -1 13 -10 16 -22 8 -11 19 23 22 35 4 83
24 83 35 0 5 -1 9 -2 8 -2 0 -10 -3 -18 -6z"/>
<path d="M1791 505 c5 -39 -12 -64 -63 -90 -36 -19 -62 -26 -89 -23 -30 3 -38
0 -36 -11 1 -8 -9 -18 -23 -22 -24 -7 -24 -7 6 -8 16 -1 36 5 43 12 11 10 13
9 7 -3 -5 -9 -2 -9 7 2 8 10 17 15 21 11 3 -3 -1 -15 -11 -25 -9 -10 -11 -18
-5 -18 6 0 14 5 18 11 3 6 18 9 32 6 18 -4 32 1 44 16 23 26 23 35 0 14 -10
-10 -29 -16 -43 -16 -20 1 -21 2 -4 6 11 3 26 10 34 17 8 6 24 11 35 11 12 0
21 6 21 15 0 8 6 19 13 23 15 10 16 56 1 77 -8 12 -9 12 -8 -5z"/>
<path d="M1291 479 c8 -5 25 -9 39 -9 24 -1 24 -1 6 -15 -16 -12 -17 -15 -4
-15 15 0 33 28 24 37 -2 2 -21 6 -42 8 -25 2 -33 0 -23 -6z"/>
<path d="M2458 464 c-5 -4 -8 -21 -8 -38 0 -21 3 -27 11 -19 6 6 9 23 7 38 -2
15 -6 23 -10 19z"/>
<path d="M1070 335 c0 -18 33 -78 37 -67 4 10 10 9 27 -5 17 -15 17 -13 -3 9
-13 15 -28 25 -34 21 -6 -3 -7 -1 -3 6 4 6 0 18 -8 27 -9 8 -16 13 -16 9z"/>
<path d="M1372 333 c29 -3 36 -8 31 -20 -5 -13 -3 -13 15 -4 33 18 101 14 120
-7 10 -10 13 -12 8 -5 -6 10 -4 12 8 7 19 -7 21 3 4 19 -8 8 -52 12 -118 13
-58 0 -88 -1 -68 -3z"/>
<path d="M767 280 c-3 -12 -1 -17 5 -14 5 3 20 -4 34 -17 13 -12 24 -19 24
-15 0 16 -21 46 -39 56 -15 8 -20 6 -24 -10z"/>
<path d="M1277 245 c-4 -21 -1 -33 10 -40 8 -5 30 -20 48 -32 19 -12 36 -19
39 -16 2 3 22 -1 43 -8 64 -22 73 -21 61 12 -5 16 -15 29 -21 29 -7 0 -7 -4 1
-12 7 -7 12 -19 12 -27 0 -10 -13 -3 -37 20 -21 18 -29 24 -19 12 11 -13 14
-23 8 -23 -6 0 -14 5 -17 11 -4 6 -13 8 -21 5 -7 -3 -16 0 -20 6 -5 7 -2 8 5
3 10 -6 11 -3 1 16 -18 34 -24 38 -16 12 10 -32 -6 -29 -27 5 -17 25 -18 25
-11 3 4 -16 3 -21 -5 -17 -6 4 -14 21 -19 39 l-8 32 -7 -30z"/>
<path d="M852 233 c2 -10 14 -19 27 -21 27 -4 21 12 -10 29 -18 9 -20 8 -17
-8z"/>
<path d="M2269 233 c-34 -41 -41 -53 -31 -53 14 0 72 49 72 61 0 15 -26 10
-41 -8z"/>
<path d="M617 221 c6 -22 33 -37 33 -18 0 14 -20 37 -31 37 -4 0 -5 -9 -2 -19z"/>
</g>
</svg>
